<?xml version="1.0" standalone="no"?><!DOCTYPE svg PUBLIC "-//W3C//DTD SVG 1.1//EN" "http://www.w3.org/Graphics/SVG/1.1/DTD/svg11.dtd"><svg t="1637044252300" class="icon" viewBox="0 0 1024 1024" version="1.1" xmlns="http://www.w3.org/2000/svg" p-id="6387" xmlns:xlink="http://www.w3.org/1999/xlink" width="128" height="128"><defs><style type="text/css"></style></defs><path d="M511.68 59.488a30.016 30.016 0 0 0-21.248 8.992L6.944 558.816a23.936 23.936 0 0 0-6.912 16.864v0.032c0 13.344 10.816 24.16 24.16 24.16h89.76v344.512c0 11.104 8.992 20.096 20.096 20.096h339.072v-157.152l-130.176-130.336a103.424 103.424 0 0 1-143.744-95.232 103.36 103.36 0 1 1 198.496 40.416l75.424 75.424v-229.344a103.488 103.488 0 0 1 38.752-199.392 103.424 103.424 0 0 1 103.328 103.488 103.424 103.424 0 0 1-64.576 95.904V697.6l75.328-75.424a101.792 101.792 0 0 1-8.16-40.256v-0.16a103.36 103.36 0 1 1 206.752 0 103.424 103.424 0 0 1-144.416 94.976l0.672 0.256-130.176 130.336v157.152h339.104a20.064 20.064 0 0 0 20.064-20.064V599.872h90.08a24.16 24.16 0 0 0 17.248-41.088l-107.328-109.76V276.032a20.16 20.16 0 0 0-20.096-20.16h-83.84a20.16 20.16 0 0 0-20.096 20.16v47.072l-252.416-254.752a30.08 30.08 0 0 0-21.376-8.928h-0.288z m0.16 271.424a41.376 41.376 0 0 0 0 82.752h0.032c22.816 0 41.312-18.496 41.312-41.312v-0.032c0-22.848-18.496-41.408-41.344-41.408z m-209.344 209.504h-0.032c-22.816 0-41.312 18.496-41.312 41.312v0.032a41.376 41.376 0 1 0 82.688 0v-0.032c0-22.816-18.496-41.312-41.312-41.312h-0.032z m418.656 0a41.408 41.408 0 1 0 41.344 41.344v-0.032c0-22.816-18.496-41.312-41.312-41.312h-0.032z" fill="#41BDF5" p-id="6388"></path></svg>